<svg xmlns:dc="http://purl.org/dc/elements/1.1/" xmlns:cc="http://creativecommons.org/ns#" xmlns:rdf="http://www.w3.org/1999/02/22-rdf-syntax-ns#" xmlns:svg="http://www.w3.org/2000/svg" xmlns="http://www.w3.org/2000/svg" xmlns:sodipodi="http://sodipodi.sourceforge.net/DTD/sodipodi-0.dtd" xmlns:inkscape="http://www.inkscape.org/namespaces/inkscape" version="1.1" x="0px" y="0px" viewBox="0 0 100 100"><g transform="translate(0,-952.36218)"><path style="text-indent:0;text-transform:none;direction:ltr;block-progression:tb;baseline-shift:baseline;color:#000000;enable-background:accumulate;" d="m 49.925413,966.81128 a 4.402952,4.4393924 0 0 0 -3.604556,2.19173 l -35.715375,62.08979 a 4.402952,4.4393924 0 0 0 3.797166,6.6861 l 71.183109,0.1388 a 4.402952,4.4393924 0 0 0 3.824682,-6.6585 L 53.942705,969.03074 a 4.402952,4.4393924 0 0 0 -4.017292,-2.21946 z m -2.503928,19.58685 5.172951,0 c 0.521065,0 0.935534,0.28567 0.935534,0.63811 l 0,29.26926 c 0,0.3525 -0.414469,0.6382 -0.935534,0.6382 l -5.172951,0 c -0.521066,0 -0.935534,-0.2857 -0.935534,-0.6382 l 0,-29.26926 c 0,-0.35244 0.414468,-0.63811 0.935534,-0.63811 z m 2.586476,33.18117 c 1.945151,0 3.522009,1.5108 3.522009,3.3846 0,1.8739 -1.576858,3.3848 -3.522009,3.3848 -1.945153,0 -3.52201,-1.5109 -3.52201,-3.3848 0,-1.8738 1.576857,-3.3846 3.52201,-3.3846 z" fill="#000000" fill-opacity="1" stroke="none" marker="none" visibility="visible" display="inline" overflow="visible"></path></g></svg>